<svg width="22" height="22" viewBox="0 0 22 22" fill="none" xmlns="http://www.w3.org/2000/svg">
<path d="M0.528177 15.37C0.591146 15.3796 0.655208 15.3796 0.718177 15.37L0.888177 15.26C0.939335 15.1988 0.982979 15.1316 1.01818 15.06C1.02778 14.997 1.02778 14.933 1.01818 14.87V6.75002C1.03305 6.68756 1.03305 6.62248 1.01818 6.56002C0.997117 6.49465 0.959171 6.43601 0.908177 6.39002C0.851652 6.34268 0.787374 6.30547 0.718177 6.28002C0.655186 6.27071 0.591168 6.27071 0.528177 6.28002C0.46191 6.2697 0.394444 6.2697 0.328177 6.28002C0.271073 6.31087 0.217435 6.34775 0.168177 6.39002C0.102446 6.43058 0.0502396 6.48975 0.018177 6.56002C0.00329973 6.62248 0.00329973 6.68756 0.018177 6.75002V14.87C0.00400968 14.9326 0.00400968 14.9975 0.018177 15.06C0.0414529 15.1243 0.0790718 15.1824 0.128177 15.23C0.175606 15.2746 0.22956 15.3117 0.288177 15.34C0.365543 15.3652 0.446997 15.3754 0.528177 15.37Z" fill="#CEC8C8" fill-opacity="0.7"/>
<path d="M19.0881 0H2.20813C1.91983 0.00232446 1.63465 0.0600379 1.36813 0.17C1.10503 0.28252 0.864485 0.441756 0.658133 0.64C0.251262 1.05372 0.0216789 1.60974 0.0181328 2.19V4.56C0.0039655 4.62254 0.0039655 4.68746 0.0181328 4.75C0.0414088 4.81429 0.0790277 4.87243 0.128133 4.92C0.189801 4.95778 0.257425 4.98482 0.328133 5C0.394387 5.01048 0.461878 5.01048 0.528133 5H18.5281C18.6598 4.99706 18.7852 4.94331 18.8781 4.85C18.925 4.80352 18.9622 4.74822 18.9876 4.68729C19.013 4.62636 19.026 4.56101 19.026 4.495C19.026 4.42899 19.013 4.36364 18.9876 4.30271C18.9622 4.24178 18.925 4.18648 18.8781 4.14C18.7852 4.04669 18.6598 3.99294 18.5281 3.99H1.01813V2.19C1.01813 2.03553 1.04872 1.88259 1.10813 1.74C1.23403 1.45421 1.46234 1.2259 1.74813 1.1C1.89311 1.03585 2.04961 1.00182 2.20813 1H19.0881C19.4032 1.00186 19.7049 1.12757 19.9281 1.35C20.0351 1.45941 20.12 1.58844 20.1781 1.73C20.2375 1.87259 20.2681 2.02553 20.2681 2.18V19.07C20.2681 19.2245 20.2375 19.3774 20.1781 19.52C20.1241 19.6666 20.0389 19.7998 19.9284 19.9103C19.8179 20.0208 19.6848 20.106 19.5381 20.16C19.3955 20.2194 19.2426 20.25 19.0881 20.25H6.42813C6.36247 20.2513 6.2977 20.2655 6.23754 20.2919C6.17737 20.3182 6.12298 20.3561 6.07748 20.4035C6.03198 20.4508 5.99625 20.5067 5.97234 20.5679C5.94843 20.6291 5.93681 20.6943 5.93813 20.76C5.93938 20.8901 5.98933 21.0149 6.07813 21.11C6.17219 21.2016 6.29691 21.2551 6.42813 21.26H19.0881C19.3759 21.2621 19.6613 21.2078 19.9281 21.1C20.1944 20.9888 20.4357 20.8256 20.6381 20.62C20.8476 20.4208 21.0113 20.1786 21.1181 19.91C21.2259 19.6432 21.2803 19.3578 21.2781 19.07V2.19C21.2792 1.90232 21.2249 1.61713 21.1181 1.35C21.0081 1.08312 20.8448 0.841521 20.6381 0.64C20.4352 0.437567 20.1938 0.277768 19.9281 0.17C19.6619 0.0590646 19.3765 0.0013122 19.0881 0Z" fill="#CEC8C8" fill-opacity="0.7"/>
<path d="M6.91815 13.7C7.19938 13.8167 7.50528 13.8614 7.80815 13.83C8.11195 13.7951 8.40321 13.6889 8.65815 13.52L11.3281 15.78C11.2176 16.0182 11.1596 16.2774 11.1581 16.54C11.1616 16.8497 11.2369 17.1544 11.3781 17.43C11.5308 17.7011 11.747 17.931 12.0081 18.1C12.2682 18.2702 12.568 18.3701 12.8781 18.39C13.1886 18.413 13.4999 18.3572 13.7831 18.2278C14.0662 18.0984 14.3122 17.8997 14.4981 17.65C14.6842 17.4012 14.8047 17.1096 14.8484 16.802C14.8921 16.4944 14.8576 16.1808 14.7481 15.89C14.639 15.6011 14.4605 15.3435 14.2281 15.14L16.4181 10.43C16.859 10.5012 17.3107 10.4088 17.6881 10.17C18.0602 9.94167 18.3373 9.58652 18.4681 9.17003C18.6044 8.74339 18.5805 8.2817 18.4007 7.87149C18.2209 7.46128 17.8977 7.13073 17.4916 6.9418C17.0855 6.75288 16.6245 6.71854 16.1949 6.84524C15.7653 6.97194 15.3967 7.25097 15.1581 7.63003C14.921 8.00819 14.8254 8.45809 14.8881 8.90002C14.9578 9.32864 15.1775 9.71853 15.5081 10L13.3181 14.7C13.2149 14.6947 13.1114 14.6947 13.0081 14.7C12.6563 14.7039 12.3129 14.8079 12.0181 15L9.29815 12.74C9.40592 12.508 9.46384 12.2559 9.46815 12C9.46945 11.7541 9.42538 11.51 9.33815 11.28C9.24546 11.0528 9.10963 10.8456 8.93815 10.67C8.76037 10.4987 8.5539 10.36 8.32815 10.26C8.09883 10.1694 7.85472 10.1219 7.60815 10.12C7.36472 10.121 7.12373 10.1685 6.89815 10.26C6.67123 10.3578 6.46441 10.4968 6.28815 10.67C6.11667 10.8456 5.98083 11.0528 5.88815 11.28C5.79598 11.5086 5.75173 11.7537 5.75815 12C5.75814 12.3972 5.88808 12.7836 6.12815 13.1L2.56815 17.7C2.34728 17.6175 2.11389 17.5736 1.87815 17.57C1.52201 17.5755 1.17492 17.6831 0.878147 17.88C0.570447 18.086 0.330411 18.3782 0.188147 18.72C0.0257855 19.0445 -0.0335301 19.4109 0.0181466 19.77C0.0868809 20.1301 0.26163 20.4615 0.519981 20.7217C0.778332 20.9818 1.1085 21.1588 1.46815 21.23C1.83118 21.2992 2.20651 21.2609 2.54815 21.12C2.88591 20.9803 3.17473 20.7437 3.37815 20.44C3.5726 20.1421 3.67997 19.7957 3.68815 19.44C3.68964 19.0426 3.55954 18.6558 3.31815 18.34L6.91815 13.7ZM16.7281 7.76003C16.8948 7.76176 17.0577 7.81026 17.1981 7.90003C17.3314 7.999 17.438 8.12959 17.5081 8.28002C17.5678 8.43548 17.5817 8.6048 17.548 8.76787C17.5143 8.93095 17.4345 9.08094 17.3181 9.20002C17.204 9.32184 17.0529 9.40267 16.8881 9.43003C16.7285 9.47934 16.5578 9.47934 16.3981 9.43003C16.2379 9.35135 16.1054 9.22579 16.0181 9.07002C15.92 8.93679 15.8674 8.77549 15.8681 8.61002C15.8668 8.4972 15.8872 8.38516 15.9281 8.28002C16.0259 8.07971 16.1878 7.9178 16.3881 7.82003C16.4971 7.78046 16.6122 7.76016 16.7281 7.76003ZM13.0181 15.69C13.184 15.6944 13.3451 15.7455 13.4832 15.8375C13.6212 15.9295 13.7304 16.0587 13.7981 16.21C13.863 16.3639 13.8805 16.5336 13.8484 16.6975C13.8164 16.8613 13.7362 17.0119 13.6181 17.13C13.4991 17.2464 13.3491 17.3262 13.186 17.3599C13.0229 17.3935 12.8536 17.3797 12.6981 17.32C12.5477 17.2498 12.4171 17.1433 12.3181 17.01C12.2284 16.8696 12.1799 16.7067 12.1781 16.54C12.1794 16.4274 12.1997 16.3159 12.2381 16.21C12.2828 16.1082 12.3474 16.0164 12.4281 15.94C12.5864 15.7855 12.7971 15.6962 13.0181 15.69ZM7.61815 11.14C7.78508 11.1401 7.94839 11.1887 8.08815 11.28C8.23013 11.3695 8.33899 11.503 8.39815 11.66C8.4695 11.8131 8.48712 11.9857 8.44815 12.15C8.41574 12.313 8.33573 12.4627 8.21825 12.5801C8.10077 12.6976 7.9511 12.7776 7.78815 12.81C7.6233 12.8382 7.4539 12.8209 7.29815 12.76C7.14437 12.6953 7.01247 12.5877 6.91815 12.45C6.84308 12.3341 6.79667 12.2021 6.78276 12.0647C6.76885 11.9273 6.78784 11.7886 6.83815 11.66C6.87701 11.5547 6.93845 11.4591 7.01815 11.38C7.09304 11.3 7.18546 11.2384 7.28815 11.2C7.39009 11.1601 7.49865 11.1397 7.60815 11.14H7.61815ZM1.87815 20.25C1.71121 20.25 1.54791 20.2013 1.40815 20.11C1.27051 20.0157 1.1629 19.8838 1.09815 19.73C1.04976 19.6152 1.02752 19.491 1.03306 19.3665C1.0386 19.242 1.07177 19.1203 1.13016 19.0102C1.18856 18.9001 1.27072 18.8044 1.37069 18.73C1.47066 18.6556 1.58593 18.6044 1.70815 18.58C1.87246 18.5489 2.04227 18.5665 2.19679 18.6304C2.35131 18.6943 2.48383 18.8019 2.57815 18.94C2.65321 19.0559 2.69962 19.188 2.71353 19.3254C2.72744 19.4627 2.70846 19.6014 2.65815 19.73C2.61421 19.8328 2.55337 19.9274 2.47815 20.01C2.39552 20.0852 2.30088 20.1461 2.19815 20.19C2.09621 20.23 1.98764 20.2503 1.87815 20.25Z" fill="#CEC8C8" fill-opacity="0.7"/>
</svg>
