<svg width="14" height="18" viewBox="0 0 14 18" fill="none" xmlns="http://www.w3.org/2000/svg">
<path fill-rule="evenodd" clip-rule="evenodd" d="M0.923912 0.638062H10.7796V2.54798C10.7796 2.73942 10.8555 2.92304 10.9908 3.05856C11.126 3.19408 11.3094 3.27042 11.5009 3.27083H13.4114V16.9218C13.4113 17.0107 13.3759 17.0959 13.313 17.1587C13.2501 17.2215 13.1649 17.2568 13.0761 17.2569H0.923598C0.834794 17.2567 0.749675 17.2213 0.686881 17.1586C0.624087 17.0958 0.588736 17.0106 0.58857 16.9218V0.973404C0.588653 0.884546 0.623967 0.799346 0.68677 0.736484C0.749573 0.673622 0.83474 0.638228 0.923598 0.638062H0.923912ZM11.3334 0.66729V2.54829C11.3335 2.59269 11.3511 2.63525 11.3825 2.66665C11.4139 2.69805 11.4565 2.71572 11.5009 2.7158H13.3819C13.365 2.67916 13.3416 2.64593 13.3127 2.61775L11.4314 0.736433C11.4033 0.707554 11.37 0.684115 11.3334 0.66729ZM7 6.91435C6.17257 6.91429 5.36372 7.15959 4.67571 7.61923C3.9877 8.07888 3.45145 8.73223 3.13476 9.49665C2.81808 10.2611 2.73519 11.1022 2.89657 11.9138C3.05796 12.7253 3.45637 13.4707 4.04142 14.0558C4.62648 14.6409 5.3719 15.0394 6.18342 15.2009C6.99494 15.3623 7.83611 15.2795 8.60055 14.9628C9.365 14.6462 10.0184 14.11 10.4781 13.422C10.9378 12.7341 11.1831 11.9252 11.1831 11.0978C11.1831 9.98836 10.7423 8.92438 9.95785 8.13986C9.17339 7.35533 8.10944 6.91451 7 6.91435ZM7 8.43895C7.34236 8.43913 7.67624 8.54539 7.95573 8.74312C8.23521 8.94085 8.44656 9.22032 8.56068 9.5431C8.67481 9.86587 8.68611 10.2161 8.59303 10.5455C8.49995 10.875 8.30707 11.1675 8.04091 11.3829C8.47368 11.5438 8.86376 11.8018 9.18109 12.1372C9.49843 12.4726 9.73456 12.8763 9.87131 13.3173C10.2862 12.7805 10.5424 12.1381 10.6106 11.463C10.6789 10.788 10.5566 10.1073 10.2576 9.49828C9.95855 8.88924 9.49479 8.37621 8.91893 8.01742C8.34307 7.65863 7.67817 7.46844 6.99968 7.46844C6.3212 7.46844 5.65629 7.65863 5.08044 8.01742C4.50458 8.37621 4.04082 8.88924 3.7418 9.49828C3.44277 10.1073 3.32046 10.788 3.38873 11.463C3.45701 12.1381 3.71314 12.7805 4.12806 13.3173C4.26483 12.8763 4.50102 12.4725 4.81841 12.1371C5.1358 11.8018 5.52594 11.5437 5.95877 11.3829C5.69259 11.1675 5.4997 10.875 5.40663 10.5455C5.31356 10.216 5.32488 9.86574 5.43905 9.54295C5.55322 9.22016 5.76461 8.94069 6.04415 8.74298C6.32368 8.54528 6.65761 8.43906 7 8.43895ZM7 8.99429C6.7819 8.99423 6.56868 9.05888 6.38733 9.18005C6.20599 9.30122 6.06467 9.47346 5.98127 9.67499C5.89786 9.87651 5.87612 10.0983 5.91879 10.3121C5.96146 10.526 6.06663 10.7224 6.22098 10.8765C6.37533 11.0306 6.57193 11.1355 6.78589 11.1778C6.99985 11.2201 7.22155 11.1979 7.42293 11.1142C7.62431 11.0304 7.79632 10.8888 7.91718 10.7073C8.03804 10.5257 8.10232 10.3124 8.10188 10.0943C8.1013 9.8024 7.98496 9.52267 7.77839 9.31645C7.57182 9.11023 7.29188 8.99437 7 8.99429ZM9.42 13.8029C9.32705 13.228 9.03249 12.705 8.58907 12.3275C8.14565 11.95 7.58233 11.7427 7 11.7427C6.41766 11.7427 5.85435 11.95 5.41093 12.3275C4.96751 12.705 4.67295 13.228 4.58 13.8029C5.24546 14.3983 6.10706 14.7274 7 14.7274C7.89294 14.7274 8.75453 14.3983 9.42 13.8029ZM2.68611 2.78306H9.17266C9.24609 2.78306 9.31652 2.75389 9.36844 2.70196C9.42037 2.65004 9.44954 2.57961 9.44954 2.50618C9.44954 2.43274 9.42037 2.36231 9.36844 2.31039C9.31652 2.25846 9.24609 2.22929 9.17266 2.22929H2.68611C2.61268 2.22929 2.54225 2.25846 2.49032 2.31039C2.4384 2.36231 2.40923 2.43274 2.40923 2.50618C2.40923 2.57961 2.4384 2.65004 2.49032 2.70196C2.54225 2.75389 2.61268 2.78306 2.68611 2.78306ZM2.68611 4.3416H11.3139C11.3873 4.3416 11.4577 4.31243 11.5097 4.26051C11.5616 4.20858 11.5908 4.13815 11.5908 4.06472C11.5908 3.99128 11.5616 3.92086 11.5097 3.86893C11.4577 3.81701 11.3873 3.78783 11.3139 3.78783H2.68611C2.61268 3.78783 2.54225 3.81701 2.49032 3.86893C2.4384 3.92086 2.40923 3.99128 2.40923 4.06472C2.40923 4.13815 2.4384 4.20858 2.49032 4.26051C2.54225 4.31243 2.61268 4.3416 2.68611 4.3416ZM2.68611 5.90015H11.3139C11.3873 5.90015 11.4577 5.87098 11.5097 5.81905C11.5616 5.76712 11.5908 5.6967 11.5908 5.62326C11.5908 5.54983 11.5616 5.4794 11.5097 5.42747C11.4577 5.37555 11.3873 5.34638 11.3139 5.34638H2.68611C2.64895 5.34512 2.61191 5.35136 2.5772 5.36472C2.5425 5.37808 2.51083 5.39829 2.4841 5.42414C2.45736 5.44999 2.4361 5.48095 2.42158 5.51519C2.40706 5.54942 2.39958 5.58623 2.39958 5.62342C2.39958 5.66061 2.40706 5.69741 2.42158 5.73165C2.4361 5.76589 2.45736 5.79685 2.4841 5.8227C2.51083 5.84855 2.5425 5.86876 2.5772 5.88212C2.61191 5.89547 2.64895 5.90171 2.68611 5.90046V5.90015Z" fill="#6C6868"/>
</svg>
