<svg width="22" height="22" viewBox="0 0 22 22" fill="none" xmlns="http://www.w3.org/2000/svg">
<path d="M11.8875 20.5125H10.5V14.0375C10.5 13.9148 10.4513 13.7972 10.3645 13.7104C10.2778 13.6237 10.1601 13.575 10.0375 13.575C9.91481 13.575 9.79717 13.6237 9.71044 13.7104C9.6237 13.7972 9.57498 13.9148 9.57498 14.0375V20.5125H3.09998V14.0375C3.09998 13.9148 3.05125 13.7972 2.96451 13.7104C2.87778 13.6237 2.76014 13.575 2.63748 13.575C2.51481 13.575 2.39717 13.6237 2.31044 13.7104C2.2237 13.7972 2.17498 13.9148 2.17498 14.0375V20.5125H0.787476V13.575C0.787476 13.4825 0.814961 11.2625 3.09998 11.2625H9.57498C11.8045 11.2625 11.8875 13.3392 11.8875 13.575V20.5125ZM6.33748 5.71248C6.87234 5.71263 7.3906 5.89822 7.80397 6.23764C8.21734 6.57705 8.50024 7.04929 8.60447 7.5739C8.7087 8.09851 8.62782 8.64303 8.3756 9.11469C8.12337 9.58635 7.71542 9.95597 7.22124 10.1606C6.72706 10.3652 6.17722 10.3921 5.66541 10.2368C5.1536 10.0815 4.71148 9.75347 4.41437 9.30872C4.11726 8.86397 3.98354 8.32996 4.036 7.79768C4.08846 7.26539 4.32386 6.76777 4.70208 6.38958C5.13597 5.95612 5.72417 5.71259 6.33748 5.71248ZM17.9 8.02497V4.78748H16.05V10.3375H20.675C20.7976 10.3375 20.9153 10.3862 21.002 10.4729C21.0888 10.5597 21.1375 10.6773 21.1375 10.8C21.1375 10.9226 21.0888 11.0403 21.002 11.127C20.9153 11.2137 20.7976 11.2625 20.675 11.2625H16.05V16.8125H17.9V13.575C17.9 13.4523 17.9487 13.3347 18.0354 13.2479C18.1222 13.1612 18.2398 13.1125 18.3625 13.1125H20.675C20.7976 13.1125 20.9153 13.1612 21.002 13.2479C21.0888 13.3347 21.1375 13.4523 21.1375 13.575C21.1375 13.6976 21.0888 13.8153 21.002 13.902C20.9153 13.9887 20.7976 14.0375 20.675 14.0375H18.825V20.5125H20.675C20.7976 20.5125 20.9153 20.5612 21.002 20.6479C21.0888 20.7347 21.1375 20.8523 21.1375 20.975C21.1375 21.0976 21.0888 21.2153 21.002 21.302C20.9153 21.3887 20.7976 21.4375 20.675 21.4375H18.3625C18.2398 21.4375 18.1222 21.3887 18.0354 21.302C17.9487 21.2153 17.9 21.0976 17.9 20.975V17.7375H15.5875C15.4648 17.7375 15.3472 17.6887 15.2604 17.602C15.1737 17.5153 15.125 17.3976 15.125 17.275V11.2625H13.7375C13.6148 11.2625 13.4972 11.2137 13.4104 11.127C13.3237 11.0403 13.275 10.9226 13.275 10.8C13.275 10.6773 13.3237 10.5597 13.4104 10.4729C13.4972 10.3862 13.6148 10.3375 13.7375 10.3375H15.125V4.32498C15.125 4.20231 15.1737 4.08467 15.2604 3.99794C15.3472 3.9112 15.4648 3.86248 15.5875 3.86248H17.9V0.624976C17.9 0.502313 17.9487 0.384674 18.0354 0.297939C18.1222 0.211203 18.2398 0.162476 18.3625 0.162476H20.675C20.7976 0.162476 20.9153 0.211203 21.002 0.297939C21.0888 0.384674 21.1375 0.502313 21.1375 0.624976C21.1375 0.747638 21.0888 0.865277 21.002 0.952013C20.9153 1.03875 20.7976 1.08748 20.675 1.08748H18.825V7.56247H20.675C20.7976 7.56247 20.9153 7.6112 21.002 7.69794C21.0888 7.78467 21.1375 7.90231 21.1375 8.02497C21.1375 8.14764 21.0888 8.26528 21.002 8.35201C20.9153 8.43875 20.7976 8.48747 20.675 8.48747H18.3625C18.2398 8.48747 18.1222 8.43875 18.0354 8.35201C17.9487 8.26528 17.9 8.14764 17.9 8.02497Z" fill="#CEC8C8" fill-opacity="0.7"/>
</svg>
