<svg width="24" height="24" viewBox="0 0 24 24" fill="none" xmlns="http://www.w3.org/2000/svg">
<path d="M4.32001 20.16C4.1309 20.16 3.94365 20.1973 3.76894 20.2696C3.59423 20.342 3.43549 20.4481 3.30177 20.5818C3.16805 20.7155 3.06199 20.8742 2.98962 21.0489C2.91725 21.2236 2.88 21.4109 2.88 21.6C2.88 21.7891 2.91725 21.9764 2.98962 22.1511C3.06199 22.3258 3.16805 22.4845 3.30177 22.6182C3.43549 22.752 3.59423 22.858 3.76894 22.9304C3.94365 23.0028 4.1309 23.04 4.32001 23.04H18.72C18.9091 23.04 19.0964 23.0028 19.2711 22.9304C19.4458 22.858 19.6045 22.752 19.7382 22.6182C19.872 22.4845 19.978 22.3258 20.0504 22.1511C20.1228 21.9764 20.16 21.7891 20.16 21.6C20.16 21.4109 20.1228 21.2236 20.0504 21.0489C19.978 20.8742 19.872 20.7155 19.7382 20.5818C19.6045 20.4481 19.4458 20.342 19.2711 20.2696C19.0964 20.1973 18.9091 20.16 18.72 20.16H13V10L14.5 11.5C14.6337 11.6345 14.7937 11.7401 14.97 11.81C15.1443 11.8826 15.3312 11.92 15.52 11.92C15.7088 11.92 15.8957 11.8826 16.07 11.81C16.2451 11.7377 16.4046 11.6325 16.54 11.5C16.6745 11.3663 16.7801 11.2063 16.85 11.03C16.9226 10.8557 16.96 10.6688 16.96 10.48C16.96 10.2912 16.9226 10.1043 16.85 9.93C16.7777 9.75494 16.6725 9.59539 16.54 9.46L13.77 6.69C13.4747 6.39429 13.1239 6.1597 12.7379 5.99964C12.3518 5.83959 11.9379 5.7572 11.52 5.7572C11.1021 5.7572 10.6882 5.83959 10.3022 5.99964C9.91608 6.1597 9.56535 6.39429 9.27001 6.69L6.54 9.42C6.40231 9.55313 6.2934 9.7131 6.22 9.89C6.14814 10.0645 6.11078 10.2513 6.11001 10.44C6.10827 10.6313 6.14219 10.8212 6.21001 11C6.3635 11.3541 6.64593 11.6365 7 11.79C7.17745 11.8627 7.36835 11.8968 7.56001 11.89C7.74872 11.8892 7.9355 11.8519 8.11 11.78C8.28691 11.7066 8.44688 11.5977 8.58 11.46L10.08 9.96V20.16H4.32001Z" fill="#CEC8C8" fill-opacity="0.7"/>
<path d="M19.44 1.39678e-05H3.60001C3.12688 -0.00130579 2.65816 0.0909101 2.22079 0.27136C1.78343 0.451809 1.38604 0.716933 1.05149 1.05149C0.716933 1.38604 0.451809 1.78343 0.27136 2.22079C0.0909101 2.65816 -0.00130579 3.12688 1.39678e-05 3.60001V13.68C-0.00130579 14.1531 0.0909101 14.6219 0.27136 15.0592C0.451809 15.4966 0.716933 15.894 1.05149 16.2285C1.38604 16.5631 1.78343 16.8282 2.22079 17.0087C2.65816 17.1891 3.12688 17.2813 3.60001 17.28H5.76001C5.94912 17.28 6.13637 17.2428 6.31108 17.1704C6.48579 17.098 6.64453 16.992 6.77825 16.8582C6.91196 16.7245 7.01803 16.5658 7.0904 16.3911C7.16277 16.2164 7.20001 16.0291 7.20001 15.84C7.20001 15.6509 7.16277 15.4637 7.0904 15.2889C7.01803 15.1142 6.91196 14.9555 6.77825 14.8218C6.64453 14.6881 6.48579 14.582 6.31108 14.5096C6.13637 14.4373 5.94912 14.4 5.76001 14.4H3.60001C3.40906 14.4 3.22592 14.3242 3.0909 14.1891C2.95587 14.0541 2.88001 13.871 2.88001 13.68V3.60001C2.88207 3.50465 2.89893 3.41019 2.93001 3.32001C3.00894 3.14738 3.14738 3.00894 3.32001 2.93001C3.41019 2.89893 3.50465 2.88207 3.60001 2.88001H19.44C19.5346 2.88001 19.6282 2.89864 19.7155 2.93482C19.8029 2.971 19.8823 3.02404 19.9491 3.0909C20.016 3.15776 20.069 3.23713 20.1052 3.32448C20.1414 3.41184 20.16 3.50546 20.16 3.60001V13.68C20.16 13.871 20.0842 14.0541 19.9491 14.1891C19.8141 14.3242 19.631 14.4 19.44 14.4H17.28C16.8981 14.4 16.5318 14.5517 16.2618 14.8218C15.9917 15.0918 15.84 15.4581 15.84 15.84C15.84 16.2219 15.9917 16.5882 16.2618 16.8582C16.5318 17.1283 16.8981 17.28 17.28 17.28H19.44C19.9131 17.2813 20.3819 17.1891 20.8192 17.0087C21.2566 16.8282 21.654 16.5631 21.9885 16.2285C22.3231 15.894 22.5882 15.4966 22.7687 15.0592C22.9491 14.6219 23.0413 14.1531 23.04 13.68V3.60001C23.0413 3.12688 22.9491 2.65816 22.7687 2.22079C22.5882 1.78343 22.3231 1.38604 21.9885 1.05149C21.654 0.716933 21.2566 0.451809 20.8192 0.27136C20.3819 0.0909101 19.9131 -0.00130579 19.44 1.39678e-05Z" fill="#CEC8C8" fill-opacity="0.7"/>
</svg>
