<svg width="20" height="18" viewBox="0 0 20 18" fill="none" xmlns="http://www.w3.org/2000/svg">
<path d="M8.70001 11.35C8.83654 13.3781 9.55809 14.6 10 14.6C10.4419 14.6 11.1375 13.3781 11.3 11.35H8.70001Z" fill="#CEC8C8" fill-opacity="0.7"/>
<path d="M10 6.80002C9.58405 6.80002 8.86251 8.02194 8.70001 10.05H11.3C11.1375 8.02194 10.416 6.80002 10 6.80002Z" fill="#CEC8C8" fill-opacity="0.7"/>
<path d="M7.40005 10.05C7.44256 9.13927 7.6245 8.2406 7.93947 7.38501C6.99133 7.9771 6.34292 8.94746 6.15851 10.05H7.40005Z" fill="#CEC8C8" fill-opacity="0.7"/>
<path d="M19.1 3.55001V1.60001C19.1 1.42765 19.0315 1.26224 18.9097 1.14037C18.7878 1.0185 18.6224 0.950012 18.45 0.950012H1.55002C1.37766 0.950012 1.21225 1.0185 1.09038 1.14037C0.968508 1.26224 0.900024 1.42765 0.900024 1.60001V3.55001H19.1Z" fill="#CEC8C8" fill-opacity="0.7"/>
<path d="M12.6 10.05H13.861C13.6721 8.94401 13.0161 7.97306 12.0605 7.38501C12.3755 8.2406 12.5575 9.13927 12.6 10.05H12.6Z" fill="#CEC8C8" fill-opacity="0.7"/>
<path d="M7.40005 11.35H6.15851C6.34741 12.456 7.00351 13.427 7.95908 14.015C7.63742 13.1606 7.44881 12.2618 7.40005 11.35Z" fill="#CEC8C8" fill-opacity="0.7"/>
<path d="M0.900024 4.85001V17.2C0.900024 17.3724 0.968508 17.5378 1.09038 17.6597C1.21225 17.7815 1.37766 17.85 1.55002 17.85H18.45C18.6224 17.85 18.7878 17.7815 18.9097 17.6597C19.0315 17.5378 19.1 17.3724 19.1 17.2V4.85001H0.900024ZM10 15.9C8.62095 15.9 7.29833 15.3521 6.32303 14.377C5.34788 13.4017 4.80002 12.0791 4.80002 10.7C4.80002 9.32093 5.34788 7.99831 6.32303 7.02301C7.29833 6.04786 8.62095 5.50001 10 5.50001C11.3791 5.50001 12.7017 6.04786 13.677 7.02301C14.6522 7.99831 15.2 9.32093 15.2 10.7C15.2 12.0791 14.6522 13.4017 13.677 14.377C12.7017 15.3521 11.3791 15.9 10 15.9Z" fill="#CEC8C8" fill-opacity="0.7"/>
<path d="M12.6 11.35C12.5575 12.2607 12.3756 13.1594 12.0606 14.015C13.0088 13.4229 13.6572 12.4526 13.8416 11.35H12.6Z" fill="#CEC8C8" fill-opacity="0.7"/>
</svg>
