<svg xmlns="http://www.w3.org/2000/svg" viewBox="0 0 1536.19 1080">
    <defs>
        <style>.cls-1{fill:#fff;}</style>
    </defs>
    <g id="Calque_2" data-name="Calque 2">
        <g id="Calque_1-2" data-name="Calque 1">
            <path d="M75.29,643c6.56-2,11.64-2.56,15.5-5,85-53.44,175.81-94.36,271.66-124.16,19.4-6,39.51-9.78,59-15.66,8.73-2.63,18.39-3,20.82-17.24,10.5-61.75,21.53-123.48,35-184.63C492.63,226.7,510.37,157.62,528,88.55c6.31-24.67,15.85-48.49,23.05-73,4.12-14,12.23-18.54,29.2-13.75-1.15,13.06-.77,27.13-3.83,40.41-13.69,59.39-28.93,118.42-42.52,177.84-15.12,66.1-29.39,132.41-43.3,198.78-4.3,20.55-6.18,41.6-9.19,62.56,84.05-10.29,163.38-40.74,246.74-27.48,17.58-11.89,34.67-27.73,54.86-36.09,29.75-12.32,62.94,13,58,45.69-9.86-5.3-18-11.64-27.26-14.12s-21.79-4.95-29.09-.78c-29.54,16.84-63.15,84.56-62,123.76,5.14-6,9.21-9.54,11.79-13.95,14-24,27.64-48.19,41.52-72.25,2.88-5,5.5-10.57,9.7-14.19,4.35-3.75,11.62-8.65,15.54-7.26,5.32,1.89,11.35,8.83,12.33,14.44,2.64,15,1.1,30.82,4.35,45.63,3.16,14.42,7.84,29.62,16.11,41.52,11.39,16.38,34.74,16.27,55.23,1.27,12.7-9.3,23.74-20.89,35.38-31.61,14-12.87,10.33-31,13.72-47,2.49-11.75,3.88-23.74,6.69-35.41,1.79-7.43,3.93-16.83,14.87-14.24,9.84,2.32,14.82,9.37,13.59,20.08-1.2,10.48-2.43,21-2.94,31.5s-.11,20.93-.11,32c.54.14,2.84,1.28,3.29.77,24.07-26.94,56.26-18.41,86-19,10.68-.22,16.77-1.13,21.55-12.56,12.14-29,29.52-54.78,60.25-67.1,10.3-4.12,22.41-5.72,33.56-5.23,13.29.59,22.34,19.33,16.78,33.37-14,35.34-40.22,58.49-75.76,70.41-9.51,3.19-12.11,6.73-12.33,16.13-.86,35.72,34.09,50.33,58.75,42,46-15.44,82-44.6,113.53-79.41,15.93-17.61,26-40.39,40.53-59.41,19.47-25.4,47.58-33.55,72.5-23.46a41.38,41.38,0,0,1,25.23,42.75c-8.07-3.06-16.61-4.17-22.21-8.82-17.78-14.74-34-11.65-48.36,4.88A224.84,224.84,0,0,0,1292,565.57c-.33,1.76.62,3.76,1.73,9.68,5.12-7.09,8.61-11.23,11.35-15.81,16.92-28.34,33.27-57,50.88-84.93,3.19-5.05,11.57-9.79,17.16-9.38,4.06.31,9.75,8.95,10.73,14.57,3.23,18.56,3.71,37.61,7.15,56.12,1.76,9.45,5.84,19.55,11.87,26.93,17.22,21.11,36.48,22.38,67-2.51,15-12.23,27-28.13,40.43-42.37,2.53-2.69,4.61-6.55,7.73-7.79,4.82-1.92,10.36-2,15.59-2.92.8,5.4,3.51,11.37,2.09,16.12-12.22,40.93-75.24,83.52-117.65,80.2-19.29-1.5-46.56-27.61-52.87-50.92-2-7.41-3.27-15-6.07-28.11-6.16,9.11-10,14.52-13.57,20.11-13.19,20.65-25.93,41.6-39.57,62-7.1,10.6-17.2,11.92-29.29,7.39-12.58-4.73-16.09-14.32-16.62-25.84-.54-11.93-.12-23.9-.12-39.44-11.82,9.07-20.81,15.81-29.63,22.76-24.29,19.12-50.67,32.73-82.12,36.72-35.4,4.5-72.26-24.54-72.72-60.14-.19-14.22-3.83-22.16-20-20.46-14.61,1.55-29.91-.31-43.87,3.3-8.84,2.29-18,10.44-23.18,18.42-16.66,25.49-23.47,54.43-24.66,84.71-.4,10-4.22,18.29-15.25,18.21-10.53-.09-13.58-8-13.48-17.69.23-21.61.08-43.23.08-69.35-27.32,24.52-53.53,44-89.89,38.5-26.57-4-52.08-35.69-58-76.64-4.92,6.42-9,10.7-11.86,15.64-10.63,18.07-20.39,36.66-31.44,54.46-7.76,12.51-17.8,22.83-34.91,18.4-14.59-3.76-22.29-15.75-22.2-35.8.14-29.84,9.43-57.44,22-84.13,2.17-4.63,4.31-9.28,7.68-16.53-83.57-.63-162.35,16.05-241.79,33.34-6.79,48.6-13.31,97.3-20.48,145.91-5.49,37.24-12.24,74.3-17.55,111.56-3.41,23.87-10.82,49.07-6.32,71.67,5.48,27.53,5.41,54.52,4,81.41-1,19.16-8.95,38.32-16.12,56.57-2.14,5.44-12.28,10.84-18.52,10.58-4.75-.19-10.83-8.7-13.22-14.72-2.57-6.5-2.44-14.49-1.93-21.71,2.6-37.4,5.07-74.83,8.82-112.13,2.74-27.25-16.4-40.18-34.12-52.62-29.15-20.48-62.78-31.36-98-35.87-63.38-8.12-126.64-2.24-191.91,2.9-1.2,8.4-2.61,16.48-3.48,24.62-4,37.63-8,75.25-11.65,112.92-1,10.49-.65,21.11-1.16,31.67C51,969.89,49,1014.68,46.37,1059.43c-.64,11-4.42,21.33-18.72,20.53s-16.17-10.79-16-22.22c1.12-65.61,1.39-131.26,3.66-196.83,1.06-30.43,6.3-60.7,8.85-91.11.39-4.63-2.31-12.55-5.68-14-24.85-10.46-22.07-30.58-7-47.57,18.43-20.72,22.22-43.1,23.18-69.4,1.65-45.18,7-90.24,11.55-135.28,3.86-38,8.42-76,13.39-113.95,4.89-37.4,10.18-74.76,16.22-112,7.87-48.49,16.46-96.85,25.1-145.21,6.06-34,12.19-68,19.59-101.66,1.28-5.86,8.21-12.35,14-14.55,2.76-1,12.81,7.09,13.16,11.57,1.49,18.63,2.64,37.74.1,56.16-8.42,61.1-18.63,122-27.89,182.94-7.48,49.24-15.39,98.42-21.58,147.82C92.87,459,89.44,503.58,85,548,81.93,578.69,78.73,609.34,75.29,643ZM433.42,523.9c-8.07.63-13.91.21-19.23,1.66-20.66,5.64-41.38,11.21-61.68,18a1158.36,1158.36,0,0,0-244.07,114c-21.68,13.43-42.84,26.07-39.92,57.61,1.21,13.15,4.65,16.08,16.88,15.22,37.41-2.63,74.89-4.31,112.34-6.36,39.79-2.18,79.45,1.95,116.79,14.21,26.2,8.6,49.71,25.65,73.94,39.76,6.91,4,12.24,6.7,13.62-3.2,3.19-22.8,5-45.79,7.78-68.65,4.68-38.48,9.63-76.92,14.58-115.36C427.24,569.08,430.25,547.46,433.42,523.9Zm731.27-80.45c-22.45,13.33-38.38,31.56-52.44,53.36C1135,497.54,1169,463.26,1164.69,443.45Z"/>
            <rect x="1258.05" y="640.08" width="222.04" height="110.54"/>
            <path class="cls-1" d="M1272.8,739.45a3.2,3.2,0,0,1-3.12-3.12v-82.8a3.14,3.14,0,0,1,.93-2.31,3,3,0,0,1,2.19-.94,2.91,2.91,0,0,1,2.24.94,3.25,3.25,0,0,1,.87,2.31v79.68h40.66a3,3,0,0,1,3.12,3.12,3.14,3.14,0,0,1-.87,2.18,2.93,2.93,0,0,1-2.25.94Z"/>
            <path class="cls-1" d="M1331.16,740.45a2.67,2.67,0,0,1-1.75-1.56,3.11,3.11,0,0,1,0-2.43L1360.72,652a3.24,3.24,0,0,1,6,0l31.43,84.43a2.94,2.94,0,0,1-.06,2.43,2.87,2.87,0,0,1-1.81,1.56,2.64,2.64,0,0,1-2.31-.07,3.27,3.27,0,0,1-1.69-1.81l-28.55-76.44-17.34,46.27H1370a2.79,2.79,0,0,1,2.11.93,3.23,3.23,0,0,1,.88,2.31,3,3,0,0,1-3,3H1344l-8.86,23.94a3.29,3.29,0,0,1-1.62,1.81A2.76,2.76,0,0,1,1331.16,740.45Z"/>
            <path class="cls-1" d="M1415.46,739.45a3.2,3.2,0,0,1-3.11-3.12V655.27a2.9,2.9,0,0,1,.93-2.24,3.06,3.06,0,0,1,2.18-.88h27.69q10.59,0,17.14,6.11t6.55,16.09a23.87,23.87,0,0,1-2.93,11.1q-2.92,5.61-9.91,9.1,14.46,5.24,14.46,21.45,0,10.86-6.6,17.15t-18.09,6.3Zm3.12-6.11h25.19q9,0,13.72-4.49t4.74-12.85a25.21,25.21,0,0,0-.81-6.36,13.22,13.22,0,0,0-3.37-5.79,17.42,17.42,0,0,0-7.61-4.24,47.26,47.26,0,0,0-13.53-1.57h-8.35a2.94,2.94,0,0,1-2.25-.93,3.11,3.11,0,0,1-.87-2.18,3.08,3.08,0,0,1,.87-2.25,3,3,0,0,1,2.25-.87h8.35q8.73,0,13.91-2.62a17.36,17.36,0,0,0,7.48-6.61,16.21,16.21,0,0,0,2.31-8.23q0-7.35-4.74-11.66t-12.72-4.3h-24.57Z"/>
        </g>
    </g>
</svg>