<svg width="556" height="273" viewBox="0 0 556 273" fill="none" xmlns="http://www.w3.org/2000/svg">
<rect x="26" y="210.032" width="137.768" height="87.3908" rx="15" fill="#D9D9D9" fill-opacity="0.15"/>
<rect x="216" y="210.032" width="137.768" height="87.3908" rx="15" fill="#D9D9D9" fill-opacity="0.15"/>
<rect x="78" y="126.024" width="100.382" height="65.8781" rx="15" fill="#D9D9D9" fill-opacity="0.08"/>
<rect x="48" y="42.0161" width="68.7418" height="65.8781" rx="15" fill="#D9D9D9" fill-opacity="0.05"/>
<rect x="487" y="43.0161" width="68.7418" height="65.8781" rx="15" fill="#D9D9D9" fill-opacity="0.05"/>
<rect x="444" y="126.024" width="100.382" height="65.8781" rx="15" fill="#D9D9D9" fill-opacity="0.08"/>
<rect x="209.995" y="105.108" width="100.382" height="86.7933" rx="15" fill="#D9D9D9" fill-opacity="0.08"/>
<rect x="337" y="148.013" width="77.5414" height="48.3943" rx="15" fill="#D9D9D9" fill-opacity="0.08"/>
<rect x="195.378" y="49" width="55.9711" height="48.3943" rx="15" transform="rotate(88.5385 195.378 49)" fill="#D9D9D9" fill-opacity="0.05"/>
<rect x="458.378" width="55.9711" height="48.3943" rx="15" transform="rotate(88.5385 458.378 0)" fill="#D9D9D9" fill-opacity="0.05"/>
<rect y="121.012" width="52.5091" height="65.8781" rx="15" fill="#D9D9D9" fill-opacity="0.08"/>
<rect x="406" y="76.0123" width="52.5091" height="65.8781" rx="15" fill="#D9D9D9" fill-opacity="0.05"/>
<rect x="327" y="21.0123" width="52.5091" height="65.8781" rx="15" fill="#D9D9D9" fill-opacity="0.05"/>
<rect x="410" y="210.032" width="137.768" height="87.3908" rx="15" fill="#D9D9D9" fill-opacity="0.15"/>
</svg>
