<?xml version="1.0" encoding="utf-8"?>
<!-- Generator: Adobe Illustrator 25.3.0, SVG Export Plug-In . SVG Version: 6.00 Build 0)  -->
<svg version="1.1" id="Calque_1" xmlns="http://www.w3.org/2000/svg" xmlns:xlink="http://www.w3.org/1999/xlink" x="0px" y="0px"
	 viewBox="0 0 1700.9 1206.2" style="enable-background:new 0 0 1700.9 1206.2;" xml:space="preserve">
<style type="text/css">
	.st0{fill-rule:evenodd;clip-rule:evenodd;fill:#E4260E;}
	.st1{fill-rule:evenodd;clip-rule:evenodd;fill:#FFFFFF;}
	.st2{fill:#FFFFFF;}
</style>
<g>
	<path class="st0" d="M586.2,74c3.8,31.8,2.7,39.1-3.9,68.5c17.4,2.4,52.2,0.3,71.5,0.3c284.1,0,568.2,0,852.3,0
		c24.1,0,43.2-1.6,64.3,7c29.8,12.1,57,41,60.3,81.7c1.8,21.5,0.3,48.9,0.3,71.1v723c0,26.3-0.6,39.3-11.3,60.1
		c-17.2,33.6-51.6,51.3-90.7,51.3H179.5c-25,0-39.4-1.1-59.3-11.7c-34-18.1-50.8-51.4-50.7-91v-723c0-59.8-10.9-126.9,54-158.7
		c20.4-10,36.2-9.8,61.4-9.8c47.3,0,94.8,0.5,142,0c-1-22.6-10.3-16.9-3.6-69c-53.2,0-107.2-1-160.3,0C76,75.5,5,144.3,0.6,230.7
		c-1.3,25.5-0.2,53.7-0.2,79.5v710.9c0,25.7,0.5,48.6,8.3,71.2c18.7,54.7,63.6,99.1,127.4,110.9c23.5,4.3,52.6,2.7,77.2,2.7
		c424.3,0,848.7,0,1273,0c71.9,0,101.8,3.4,158.1-41.9c19.2-15.4,38.6-45.8,47.3-71.8c8.1-24.2,8.3-43.1,8.3-69.9V390
		c0-51.7,1.9-107.2-0.1-158.4c-3.5-85.6-73.8-154.9-160-157.7c-52.1-1.7-107.1-0.1-159.6-0.1H664.7C639.8,73.8,610.7,72.4,586.2,74z
		"/>
	<g>
		<path class="st0" d="M1221.6,628.5c0.7-4.1,11.7-26.6,14.4-32.2c20.7-42.9,57.7-122.9,73.6-164.6l20.5-51.6
			c1.9-4.6,3.6-12.9,7.7-15.3c2.3,5,9.4,117.2,10.9,133.4c1.6,18.5,12.1,121.2,11.3,130.6L1221.6,628.5L1221.6,628.5z M1181.2,733.6
			h184.9l13.3,166.8l143.9-0.4l-75.2-642.3h-174.8c-3.5,1.6-4.3,5.5-6.1,9.3c-1.8,3.7-3.1,6.6-5,10.3c-3.6,7-6.5,13-9.7,19.8
			c-6.4,13.4-13.3,27-19.7,40.4c-12.5,26.7-26,53.1-39,80.1L959.3,900.4l145.6-0.4L1181.2,733.6z"/>
		<path class="st0" d="M945.6,393.9c1.9-2.6,42.1-109.3,42.7-114.3c-5.5-1.9-10.7-5.3-16.4-7.8c-42.4-18.6-92.4-24.7-138.9-24
			c-97.2,1.5-201.9,44-236.5,137.3c-18.6,50.1-17.8,110.2,10.6,150.9l10.2,13.8c3.4,4.5,7,8.6,10.5,12.5
			c9.1,10.2,26.8,24.5,38.1,32.9c50.6,37.7,134.7,60,137.8,118c2.9,56-52.6,80.5-108.4,78.8c-28.1-0.9-55.1-5.1-80.3-12.8
			c-36.9-11.2-56.2-24.7-64.9-27.6c-6.5,17.8-15.1,37.8-22.8,55.9c-3.6,8.4-21.6,51.6-22.5,56.9c4.3,1.9,10,6,15.1,8.9
			c35.2,20.6,89.2,31.4,129.6,34.4c104.5,8,212.3-16.2,269.6-103.1c23.9-36.2,39.2-99.1,25.8-150.9
			c-27.5-105.5-143.7-127.3-196.3-178.2c-39.3-38.1-19.1-91.3,42.3-105.8c27-6.4,59.1-4.4,85.7,0.8
			C918.8,378.9,920.2,385.4,945.6,393.9z"/>
		<path class="st1" d="M207.6,331.7l3.8,112.1c9.7-1.4,119.7-54.5,129.1-55.9l-96.2,512.4h138.5l121.3-646.8H388.4l-49.7,21.3
			C325.9,280.3,216.6,329.1,207.6,331.7z"/>
	</g>
	<path class="st0" d="M446.2,0.5c-29.7,2.9-55.1,18.4-67.2,33.8c-14.5,18.4-27.4,42.2-24.3,75.6c4.9,52.2,51.2,96.6,109.9,90.9
		c52-5.1,96-51.1,90.4-109.9C550.1,39.6,504.2-5.1,446.2,0.5z"/>
	<g>
		<path class="st2" d="M183.4,1012.5c3.1,1.6,8,3.2,12.9,3.2c5.4,0,8.2-2.2,8.2-5.6c0-3.2-2.4-5-8.6-7.3c-8.6-3-14.2-7.7-14.2-15.2
			c0-8.8,7.3-15.5,19.5-15.5c5.8,0,10.1,1.2,13.2,2.6l-2.6,9.4c-2.1-1-5.7-2.5-10.8-2.5c-5,0-7.5,2.3-7.5,5c0,3.3,2.9,4.7,9.6,7.3
			c9.1,3.4,13.4,8.1,13.4,15.4c0,8.6-6.7,16.1-20.8,16.1c-5.9,0-11.7-1.6-14.6-3.2L183.4,1012.5z"/>
		<path class="st2" d="M261.4,1005.4c0,13.7-9.7,20-19.7,20c-10.9,0-19.4-7.2-19.4-19.3c0-12.1,8-19.8,20-19.8
			C253.8,986.2,261.4,994.1,261.4,1005.4z M234.3,1005.7c0,6.4,2.7,11.2,7.6,11.2c4.5,0,7.4-4.5,7.4-11.2c0-5.6-2.1-11.2-7.4-11.2
			C236.4,994.5,234.3,1000.2,234.3,1005.7z"/>
		<path class="st2" d="M268.6,970.2h11.6v54.3h-11.6V970.2z"/>
		<path class="st2" d="M324.9,1012.5c0,4.9,0.2,8.9,0.3,12h-10.1l-0.5-5.3h-0.2c-1.5,2.3-5,6.1-11.7,6.1c-7.6,0-13.2-4.7-13.2-16.3
			v-22h11.7v20.1c0,5.4,1.8,8.7,5.8,8.7c3.2,0,5-2.2,5.8-4.1c0.3-0.7,0.4-1.6,0.4-2.5v-22.3h11.7L324.9,1012.5L324.9,1012.5z"/>
		<path class="st2" d="M347.2,976.9v10.2h8.3v8.6h-8.3v13.5c0,4.5,1.1,6.6,4.6,6.6c1.6,0,2.3-0.1,3.4-0.3l0.1,8.8
			c-1.5,0.6-4.3,1.1-7.6,1.1c-3.7,0-6.9-1.4-8.7-3.3c-2.1-2.2-3.2-5.8-3.2-11.1v-15.3h-5v-8.6h5v-7L347.2,976.9z"/>
		<path class="st2" d="M374.3,976.7c0,3.2-2.4,5.8-6.3,5.8c-3.7,0-6.1-2.6-6-5.8c-0.1-3.4,2.4-5.9,6.1-5.9S374.2,973.3,374.3,976.7z
			 M362.3,1024.5v-37.4h11.6v37.4H362.3z"/>
		<path class="st2" d="M420.2,1005.4c0,13.7-9.7,20-19.7,20c-10.9,0-19.4-7.2-19.4-19.3c0-12.1,8-19.8,20-19.8
			C412.5,986.2,420.2,994.1,420.2,1005.4z M393.1,1005.7c0,6.4,2.7,11.2,7.6,11.2c4.5,0,7.4-4.5,7.4-11.2c0-5.6-2.1-11.2-7.4-11.2
			C395.2,994.5,393.1,1000.2,393.1,1005.7z"/>
		<path class="st2" d="M427.3,999c0-4.7-0.2-8.6-0.3-11.9h10.1l0.5,5.1h0.2c1.5-2.4,5.4-6,11.6-6c7.6,0,13.4,5.1,13.4,16.1v22.2
			h-11.6v-20.7c0-4.8-1.7-8.1-5.9-8.1c-3.2,0-5.1,2.2-5.9,4.4c-0.3,0.8-0.5,1.8-0.5,2.9v21.6h-11.6V999z"/>
		<path class="st2" d="M472.1,1014.3c2.1,1.3,6.6,2.8,10,2.8c3.5,0,5-1.2,5-3.1s-1.1-2.8-5.5-4.3c-7.7-2.6-10.7-6.8-10.6-11.2
			c0-7,6-12.3,15.2-12.3c4.4,0,8.3,1,10.6,2.1l-2.1,8c-1.7-0.9-4.9-2.1-8.1-2.1c-2.8,0-4.4,1.1-4.4,3.1c0,1.8,1.5,2.7,6,4.3
			c7.1,2.4,10.1,6,10.2,11.6c0,7-5.5,12.2-16.2,12.2c-4.9,0-9.3-1.1-12.1-2.7L472.1,1014.3z"/>
		<path class="st2" d="M533.8,976.9v10.2h8.3v8.6h-8.3v13.5c0,4.5,1.1,6.6,4.6,6.6c1.6,0,2.3-0.1,3.4-0.3l0.1,8.8
			c-1.5,0.6-4.3,1.1-7.6,1.1c-3.7,0-6.9-1.4-8.7-3.3c-2.1-2.2-3.2-5.8-3.2-11.1v-15.3h-5v-8.6h5v-7L533.8,976.9z"/>
		<path class="st2" d="M557.4,1009.5c0.4,4.8,5.1,7.1,10.6,7.1c4,0,7.2-0.5,10.3-1.5l1.5,7.9c-3.8,1.5-8.5,2.4-13.5,2.4
			c-12.7,0-20-7.4-20-19.1c0-9.5,5.9-20,18.9-20c12.1,0,16.7,9.4,16.7,18.7c0,2-0.2,3.7-0.4,4.6L557.4,1009.5L557.4,1009.5z
			 M571.1,1001.5c0-2.8-1.2-7.6-6.6-7.6c-4.9,0-6.9,4.4-7.2,7.6H571.1z"/>
		<path class="st2" d="M616.9,1023.6c-2.1,0.9-6,1.8-10.4,1.8c-12.1,0-19.8-7.4-19.8-19.2c0-10.9,7.5-19.9,21.4-19.9
			c3.1,0,6.4,0.5,8.9,1.5l-1.8,8.6c-1.4-0.6-3.4-1.1-6.5-1.1c-6.1,0-10.1,4.4-10,10.5c0,6.9,4.6,10.5,10.3,10.5
			c2.8,0,4.9-0.5,6.7-1.2L616.9,1023.6z"/>
		<path class="st2" d="M623.3,970.2h11.6v21.3h0.2c1.2-1.6,2.8-2.9,4.6-3.8s3.9-1.5,6-1.5c7.4,0,13.1,5.1,13.1,16.4v21.9h-11.6
			v-20.6c0-4.9-1.7-8.3-6-8.3c-3.1,0-5,2-5.8,4.1c-0.3,0.8-0.4,1.8-0.4,2.6v22.2h-11.6L623.3,970.2L623.3,970.2z"/>
		<path class="st2" d="M668.1,999c0-4.7-0.2-8.6-0.3-11.9h10.1l0.5,5.1h0.2c1.5-2.4,5.4-6,11.6-6c7.6,0,13.4,5.1,13.4,16.1v22.2H692
			v-20.7c0-4.8-1.7-8.1-5.9-8.1c-3.2,0-5.1,2.2-5.9,4.4c-0.3,0.8-0.5,1.8-0.5,2.9v21.6h-11.6V999z"/>
		<path class="st2" d="M724.9,976.7c0,3.2-2.4,5.8-6.3,5.8c-3.7,0-6.1-2.6-6-5.8c-0.1-3.4,2.4-5.9,6.1-5.9S724.9,973.3,724.9,976.7z
			 M712.9,1024.5v-37.4h11.6v37.4H712.9z"/>
		<path class="st2" d="M758.5,1019.8h-0.2c-2.4,3.5-6.1,5.5-11.1,5.5c-8.1,0-15.5-7.1-15.5-19.1c0-13.4,8.6-20,16.5-20
			c4.8,0,8.3,1.8,10.4,5.2h0.2l0.3-4.4h11.2c-0.1,3.6-0.2,7.3-0.2,11.2v41.3h-11.6L758.5,1019.8L758.5,1019.8z M758.5,1002.8
			c0-0.6-0.1-1.3-0.2-1.9c-0.6-3-3.1-5.6-6.7-5.6c-5.4,0-8,4.5-8,10.6c0,6.3,3,10.3,7.9,10.3c3.3,0,6-2.2,6.7-5.3
			c0.2-0.8,0.3-1.8,0.3-2.5V1002.8z"/>
		<path class="st2" d="M814.6,1012.5c0,4.9,0.2,8.9,0.3,12h-10.1l-0.5-5.3h-0.2c-1.5,2.3-5,6.1-11.7,6.1c-7.6,0-13.2-4.7-13.2-16.3
			v-22h11.7v20.1c0,5.4,1.8,8.7,5.8,8.7c3.2,0,5-2.2,5.8-4.1c0.3-0.7,0.4-1.6,0.4-2.5v-22.3h11.7V1012.5z"/>
		<path class="st2" d="M832.9,1009.5c0.4,4.8,5.1,7.1,10.6,7.1c4,0,7.2-0.5,10.3-1.5l1.5,7.9c-3.8,1.5-8.5,2.4-13.5,2.4
			c-12.7,0-20-7.4-20-19.1c0-9.5,5.9-20,18.9-20c12.1,0,16.7,9.4,16.7,18.7c0,2-0.2,3.7-0.4,4.6L832.9,1009.5L832.9,1009.5z
			 M846.6,1001.5c0-2.8-1.2-7.6-6.6-7.6c-4.9,0-6.9,4.4-7.2,7.6H846.6z"/>
		<path class="st2" d="M864.3,1014.3c2.1,1.3,6.6,2.8,10,2.8c3.5,0,5-1.2,5-3.1s-1.1-2.8-5.5-4.3c-7.7-2.6-10.7-6.8-10.6-11.2
			c0-7,6-12.3,15.2-12.3c4.4,0,8.3,1,10.6,2.1l-2.1,8c-1.7-0.9-4.9-2.1-8.1-2.1c-2.8,0-4.4,1.1-4.4,3.1c0,1.8,1.5,2.7,6,4.3
			c7.1,2.4,10.1,6,10.2,11.6c0,7-5.5,12.2-16.2,12.2c-4.9,0-9.3-1.1-12.1-2.7L864.3,1014.3z"/>
		<path class="st2" d="M921.9,1009.5c0.4,4.8,5.1,7.1,10.6,7.1c4,0,7.2-0.5,10.3-1.5l1.5,7.9c-3.8,1.5-8.5,2.4-13.5,2.4
			c-12.7,0-20-7.4-20-19.1c0-9.5,5.9-20,18.9-20c12.1,0,16.7,9.4,16.7,18.7c0,2-0.2,3.7-0.4,4.6L921.9,1009.5L921.9,1009.5z
			 M935.6,1001.5c0-2.8-1.2-7.6-6.6-7.6c-4.9,0-6.9,4.4-7.2,7.6H935.6z"/>
		<path class="st2" d="M966.3,976.9v10.2h8.3v8.6h-8.3v13.5c0,4.5,1.1,6.6,4.6,6.6c1.6,0,2.3-0.1,3.4-0.3l0.1,8.8
			c-1.5,0.6-4.3,1.1-7.6,1.1c-3.7,0-6.9-1.4-8.7-3.3c-2.1-2.2-3.2-5.8-3.2-11.1v-15.3h-5v-8.6h5v-7L966.3,976.9z"/>
		<path class="st2" d="M1009.8,976.9v10.2h8.3v8.6h-8.3v13.5c0,4.5,1.1,6.6,4.6,6.6c1.6,0,2.3-0.1,3.4-0.3l0.1,8.8
			c-1.5,0.6-4.3,1.1-7.6,1.1c-3.7,0-6.9-1.4-8.7-3.3c-2.1-2.2-3.2-5.8-3.2-11.1v-15.3h-5v-8.6h5v-7L1009.8,976.9z"/>
		<path class="st2" d="M1033.5,1009.5c0.4,4.8,5.1,7.1,10.6,7.1c4,0,7.2-0.5,10.3-1.5l1.5,7.9c-3.8,1.5-8.5,2.4-13.5,2.4
			c-12.7,0-20-7.4-20-19.1c0-9.5,5.9-20,18.9-20c12.1,0,16.7,9.4,16.7,18.7c0,2-0.2,3.7-0.4,4.6L1033.5,1009.5L1033.5,1009.5z
			 M1047.2,1001.5c0-2.8-1.2-7.6-6.6-7.6c-4.9,0-6.9,4.4-7.2,7.6H1047.2z"/>
		<path class="st2" d="M1093,1023.6c-2.1,0.9-6,1.8-10.4,1.8c-12.1,0-19.8-7.4-19.8-19.2c0-10.9,7.5-19.9,21.4-19.9
			c3.1,0,6.4,0.5,8.9,1.5l-1.8,8.6c-1.4-0.6-3.4-1.1-6.5-1.1c-6.1,0-10.1,4.4-10,10.5c0,6.9,4.6,10.5,10.3,10.5
			c2.8,0,4.9-0.5,6.7-1.2L1093,1023.6z"/>
		<path class="st2" d="M1099.4,970.2h11.6v21.3h0.2c1.2-1.6,2.8-2.9,4.6-3.8c1.8-0.9,3.9-1.5,6-1.5c7.4,0,13.1,5.1,13.1,16.4v21.9
			h-11.6v-20.6c0-4.9-1.7-8.3-6-8.3c-3.1,0-5,2-5.8,4.1c-0.3,0.8-0.4,1.8-0.4,2.6v22.2h-11.6L1099.4,970.2L1099.4,970.2z"/>
		<path class="st2" d="M1144.2,999c0-4.7-0.2-8.6-0.3-11.9h10.1l0.5,5.1h0.2c1.5-2.4,5.4-6,11.6-6c7.7,0,13.4,5.1,13.4,16.1v22.2
			h-11.6v-20.7c0-4.8-1.7-8.1-5.9-8.1c-3.2,0-5.1,2.2-5.9,4.4c-0.3,0.8-0.5,1.8-0.5,2.9v21.6h-11.6L1144.2,999L1144.2,999z"/>
		<path class="st2" d="M1225.9,1005.4c0,13.7-9.7,20-19.7,20c-10.9,0-19.4-7.2-19.4-19.3c0-12.1,8-19.8,20-19.8
			C1218.3,986.2,1225.9,994.1,1225.9,1005.4z M1198.9,1005.7c0,6.4,2.7,11.2,7.7,11.2c4.5,0,7.4-4.5,7.4-11.2
			c0-5.6-2.1-11.2-7.4-11.2C1200.9,994.5,1198.9,1000.2,1198.9,1005.7z"/>
		<path class="st2" d="M1233.1,970.2h11.6v54.3h-11.6V970.2z"/>
		<path class="st2" d="M1291.1,1005.4c0,13.7-9.7,20-19.7,20c-10.9,0-19.4-7.2-19.4-19.3c0-12.1,8-19.8,20-19.8
			C1283.4,986.2,1291.1,994.1,1291.1,1005.4z M1264,1005.7c0,6.4,2.7,11.2,7.7,11.2c4.5,0,7.4-4.5,7.4-11.2c0-5.6-2.1-11.2-7.4-11.2
			C1266.1,994.5,1264,1000.2,1264,1005.7z"/>
		<path class="st2" d="M1333.9,1019.1c0,7.2-1.5,13.1-5.7,16.8c-4.1,3.5-9.7,4.6-15.2,4.6c-4.9,0-10.1-1-13.5-2.9l2.3-8.8
			c2.4,1.4,6.5,2.8,10.9,2.8c5.5,0,9.7-3,9.7-9.9v-2.4h-0.2c-2.2,3.1-5.8,4.9-10.1,4.9c-9.3,0-15.8-7.5-15.8-18.3
			c0-12,7.8-19.7,17-19.7c5.1,0,8.3,2.2,10.3,5.3h0.1l0.4-4.4h10.1c-0.1,2.4-0.3,5.5-0.3,11.1L1333.9,1019.1L1333.9,1019.1z
			 M1322.3,1002.3c0-0.8-0.1-1.5-0.2-2.1c-0.8-3.1-3.1-5.1-6.3-5.1c-4.2,0-7.7,3.8-7.7,10.6c0,5.6,2.8,9.9,7.7,9.9
			c3,0,5.4-2,6.1-4.7c0.3-0.8,0.4-2.1,0.4-3.1V1002.3z"/>
		<path class="st2" d="M1355.2,976.7c0,3.2-2.4,5.8-6.3,5.8c-3.7,0-6.1-2.6-6-5.8c-0.1-3.4,2.4-5.9,6.1-5.9
			S1355.2,973.3,1355.2,976.7z M1343.2,1024.5v-37.4h11.6v37.4H1343.2z"/>
		<path class="st2" d="M1388.8,1019.8h-0.2c-2.4,3.5-6.1,5.5-11.1,5.5c-8.1,0-15.5-7.1-15.5-19.1c0-13.4,8.6-20,16.5-20
			c4.8,0,8.3,1.8,10.4,5.2h0.2l0.3-4.4h11.2c-0.1,3.6-0.2,7.3-0.2,11.2v41.3h-11.6L1388.8,1019.8L1388.8,1019.8z M1388.8,1002.8
			c0-0.6-0.1-1.3-0.2-1.9c-0.6-3-3.1-5.6-6.7-5.6c-5.4,0-8,4.5-8,10.6c0,6.3,3,10.3,7.9,10.3c3.3,0,6-2.2,6.7-5.3
			c0.2-0.8,0.3-1.8,0.3-2.5L1388.8,1002.8L1388.8,1002.8z"/>
		<path class="st2" d="M1444.9,1012.5c0,4.9,0.2,8.9,0.3,12h-10.1l-0.5-5.3h-0.2c-1.5,2.3-5,6.1-11.7,6.1c-7.6,0-13.2-4.7-13.2-16.3
			v-22h11.7v20.1c0,5.4,1.8,8.7,5.8,8.7c3.2,0,5.1-2.2,5.8-4.1c0.3-0.7,0.4-1.6,0.4-2.5v-22.3h11.7L1444.9,1012.5L1444.9,1012.5z"/>
		<path class="st2" d="M1463.2,1009.5c0.4,4.8,5.1,7.1,10.6,7.1c4,0,7.2-0.5,10.3-1.5l1.5,7.9c-3.8,1.5-8.5,2.4-13.5,2.4
			c-12.7,0-20-7.4-20-19.1c0-9.5,5.9-20,18.9-20c12.1,0,16.7,9.4,16.7,18.7c0,2-0.2,3.7-0.4,4.6L1463.2,1009.5L1463.2,1009.5z
			 M1476.9,1001.5c0-2.8-1.2-7.6-6.6-7.6c-4.9,0-6.9,4.4-7.2,7.6H1476.9z"/>
		<path class="st2" d="M1494.5,1014.3c2.1,1.3,6.6,2.8,10,2.8c3.5,0,5-1.2,5-3.1s-1.1-2.8-5.5-4.3c-7.7-2.6-10.7-6.8-10.6-11.2
			c0-7,6-12.3,15.2-12.3c4.4,0,8.3,1,10.6,2.1l-2.1,8c-1.7-0.9-4.9-2.1-8.1-2.1c-2.8,0-4.4,1.1-4.4,3.1c0,1.8,1.5,2.7,6,4.3
			c7.1,2.4,10.1,6,10.2,11.6c0,7-5.5,12.2-16.2,12.2c-4.9,0-9.3-1.1-12.1-2.7L1494.5,1014.3z"/>
	</g>
</g>
</svg>
